<svg width="162" height="232" viewBox="0 0 162 232" fill="none" xmlns="http://www.w3.org/2000/svg">
<g opacity="0.1" clip-path="url(#clip0_790_86)">
<path d="M149.489 101.283C149.526 101.199 149.573 101.12 149.604 101.035C149.733 100.653 149.796 100.255 149.793 99.8437C149.793 99.7457 149.767 99.6537 149.756 99.5573C149.735 99.3539 149.733 99.1537 149.679 98.955C149.642 98.8211 149.568 98.7094 149.519 98.5841C149.492 98.5173 149.501 98.4499 149.47 98.3825L130.014 56.6494C129.739 56.0609 129.299 55.6343 128.801 55.2875C128.604 54.4195 128.108 53.6303 127.343 53.1178L97.5044 33.0451C97.0976 32.7734 96.6458 32.5877 96.1652 32.4982L27.7557 19.7655C27.2751 19.6761 26.7867 19.6868 26.3094 19.794L-8.75312 27.7868C-9.64765 27.9905 -10.394 28.5485 -10.8901 29.2838C-11.4761 29.4288 -12.044 29.6715 -12.5125 30.1215L-45.6799 62.0602C-45.7325 62.1085 -45.749 62.1781 -45.7987 62.2305C-45.8898 62.3297 -45.9986 62.4075 -46.0776 62.5198C-46.1993 62.6859 -46.2744 62.8752 -46.3658 63.0542C-46.4074 63.1408 -46.4658 63.2207 -46.5003 63.3086C-46.6541 63.6865 -46.7356 64.0851 -46.7526 64.4885C-46.7555 64.5823 -46.739 64.6689 -46.7342 64.7605C-46.7215 65.0823 -46.6676 65.3972 -46.5697 65.7095C-46.5331 65.8252 -46.4953 65.9338 -46.4476 66.048C-46.4122 66.1308 -46.3998 66.2202 -46.3573 66.3043L26.1629 203.212C26.1844 203.253 26.2274 203.275 26.2496 203.312C26.486 203.719 26.7833 204.072 27.1517 204.355C27.209 204.398 27.2717 204.432 27.3331 204.472C27.7329 204.742 28.1753 204.959 28.6665 205.05C29.1576 205.142 29.6484 205.099 30.1186 204.99C30.1905 204.975 30.2611 204.966 30.3301 204.946C30.7721 204.814 31.1799 204.593 31.5469 204.298C31.5809 204.272 31.6291 204.266 31.6637 204.236L148.585 102.588C148.654 102.528 148.699 102.446 148.765 102.382C148.85 102.296 148.925 102.205 149.001 102.11C149.198 101.853 149.361 101.578 149.489 101.283ZM27.1801 26.9142L94.1372 39.3766L117.263 54.933L89.4051 63.9038L22.7708 51.5015L0.00579375 33.1085L27.1801 26.9142ZM1.32788 112.845L87.3414 128.855L30.612 194.578L1.32788 112.845ZM2.77413 105.855L24.1942 59.0259L85.4751 70.4318L90.5909 122.2L2.77413 105.855ZM-36.3451 62.981L-8.07329 35.7572L17.5282 56.4422L-3.28053 101.937L-36.1759 63.125C-36.2229 63.0655 -36.2933 63.0342 -36.3451 62.981ZM-7.64963 107.821C-7.70767 108.347 -7.67034 108.887 -7.48355 109.405L9.15832 155.859L-30.6819 80.6447L-7.64963 107.821ZM64.5595 166.171L96.8041 128.815C97.1646 128.4 97.3904 127.908 97.5291 127.397L128.8 110.328L64.5595 166.171ZM97.4774 119.289L92.6389 70.3604L123.848 60.3111L140.432 95.8837C140.365 95.9147 140.288 95.9185 140.219 95.9565L97.4774 119.289Z" fill="white"/>
</g>
<defs>
<clipPath id="clip0_790_86">
<rect width="199.804" height="199.804" fill="white" transform="translate(-34.6211 -0.907593) rotate(10.5435)"/>
</clipPath>
</defs>
</svg>
